HIERARCHY
ROOT Hips
{
 OFFSET 0.000000 0.000000 0.000000
 CHANNELS 6 Xposition Yposition Zposition Yrotation Xrotation Zrotation
 JOINT Chest
 {
  OFFSET 0.000000 9.588913 -0.003946
  CHANNELS 3 Yrotation Xrotation Zrotation
  JOINT Chest2
  {
   OFFSET 0.000000 9.541882 0.008053
   CHANNELS 3 Yrotation Xrotation Zrotation
   JOINT Chest3
   {
    OFFSET 0.000000 9.501360 0.000000
    CHANNELS 3 Yrotation Xrotation Zrotation
    JOINT Chest4
    {
     OFFSET 0.000000 9.491660 0.000000
     CHANNELS 3 Yrotation Xrotation Zrotation
     JOINT Neck
     {
      OFFSET 0.000000 14.331917 0.000000
      CHANNELS 3 Yrotation Xrotation Zrotation
      JOINT Head
      {
       OFFSET 0.000000 8.884799 0.017034
       CHANNELS 3 Yrotation Xrotation Zrotation
       End Site
       {
        OFFSET 0.000000 16.896195 0.008993
       }
      }
     }
     JOINT RightCollar
     {
      OFFSET -2.923010 9.499495 0.000000
      CHANNELS 3 Yrotation Xrotation Zrotation
      JOINT RightShoulder
      {
       OFFSET -13.795216 0.000000 0.000000
       CHANNELS 3 Yrotation Xrotation Zrotation
       JOINT RightElbow
       {
        OFFSET -30.272209 0.000000 0.000000
        CHANNELS 3 Yrotation Xrotation Zrotation
        JOINT RightWrist
        {
         OFFSET -24.478199 0.000000 0.000000
         CHANNELS 3 Yrotation Xrotation Zrotation
         End Site
         {
          OFFSET -18.090752 0.000000 0.000000
         }
        }
       }
      }
     }
     JOINT LeftCollar
     {
      OFFSET 2.923010 9.499495 0.000000
      CHANNELS 3 Yrotation Xrotation Zrotation
      JOINT LeftShoulder
      {
       OFFSET 13.795216 0.000000 0.000000
       CHANNELS 3 Yrotation Xrotation Zrotation
       JOINT LeftElbow
       {
        OFFSET 30.272209 0.000000 0.000000
        CHANNELS 3 Yrotation Xrotation Zrotation
        JOINT LeftWrist
        {
         OFFSET 24.478199 0.000000 0.000000
         CHANNELS 3 Yrotation Xrotation Zrotation
         End Site
         {
          OFFSET 18.090752 0.000000 0.000000
         }
        }
       }
      }
     }
    }
   }
  }
 }
 JOINT RightHip
 {
  OFFSET -7.826875 0.019532 0.001973
  CHANNELS 3 Yrotation Xrotation Zrotation
  JOINT RightKnee
  {
   OFFSET 0.000000 -40.546152 -0.001885
   CHANNELS 3 Yrotation Xrotation Zrotation
   JOINT RightAnkle
   {
    OFFSET 0.000000 -39.417092 -0.003189
    CHANNELS 3 Yrotation Xrotation Zrotation
    JOINT RightToe
    {
     OFFSET 0.000000 -7.579396 17.243563
     CHANNELS 3 Yrotation Xrotation Zrotation
     End Site
     {
      OFFSET 0.000000 -1.500329 6.694466
     }
    }
   }
  }
 }
 JOINT LeftHip
 {
  OFFSET 7.826875 0.019532 0.001973
  CHANNELS 3 Yrotation Xrotation Zrotation
  JOINT LeftKnee
  {
   OFFSET 0.000000 -40.546152 -0.001885
   CHANNELS 3 Yrotation Xrotation Zrotation
   JOINT LeftAnkle
   {
    OFFSET 0.000000 -39.417092 -0.003189
    CHANNELS 3 Yrotation Xrotation Zrotation
    JOINT LeftToe
    {
     OFFSET 0.000000 -7.579396 17.243563
     CHANNELS 3 Yrotation Xrotation Zrotation
     End Site
     {
      OFFSET 0.000000 -1.500329 6.694466
     }
    }
   }
  }
 }
}
MOTION
Frames: 15
Frame Time: 0.008333
0.000000 87.345680 0.000000 0.000000 -5.767889 0.000000 0.000000 11.653876 0.000000 0.000000 -5.885988 0.000000 0.000000 -0.000000 0.000000 0.000000 -0.000000 0.000000 0.000000 12.528808 0.000000 0.000000 0.711711 0.000000 0.000000 -0.000000 0.000000 0.000000 -0.000000 0.000000 2.309063 -0.000000 0.000000 -2.309063 -0.000000 -0.000000 0.000000 -0.000000 0.000000 0.000000 0.000000 0.000000 -2.309063 0.000000 0.000000 2.309063 -0.000000 0.000000 0.000000 8.520374 0.000000 0.000000 1.905768 0.000000 -0.000000 -4.658254 0.000000 0.000000 -0.000000 0.000000 0.000000 8.520374 0.000000 0.000000 1.905768 0.000000 -0.000000 -4.658254 0.000000 0.000000 -0.000000 0.000000
12.682950 89.123985 0.545610 48.120337 -5.840890 -0.500562 -0.941653 2.363965 -0.192493 -0.539165 1.353456 -0.085958 -0.674321 1.691689 -0.109446 -0.539165 1.353456 -0.085958 2.186766 21.220219 -0.235579 2.392921 -3.115756 -0.751326 0.129979 0.306671 -1.405507 -2.031093 10.548084 76.927515 30.400831 11.696116 20.753979 -0.603265 -0.970180 0.150846 4.655643 -0.578044 1.544197 11.235134 9.564675 -67.051392 -38.225482 26.523888 -34.275569 -2.386492 -2.422497 -1.536268 0.115295 8.035951 0.038000 -0.344566 2.359899 -0.173087 0.924582 -4.496463 0.680889 0.000035 -0.055363 0.007894 0.363976 8.440647 -0.248288 1.302765 1.899748 0.001064 -2.097118 -4.670861 1.069408 0.009793 0.041979 0.008149
12.701612 89.124153 0.539854 48.138001 -5.846757 -0.507247 -0.953074 2.373733 -0.192976 -0.545569 1.358649 -0.085440 -0.682325 1.698180 -0.108830 -0.545569 1.358649 -0.085440 2.207263 21.252839 -0.269099 2.422995 -3.076843 -0.791952 0.136921 0.280745 -1.475361 -2.220129 10.782261 76.481811 31.226030 12.002542 21.460580 -0.606722 -0.956800 0.240463 4.733599 -0.623703 1.611214 11.461214 9.702085 -66.568421 -39.271634 26.748270 -35.174124 -2.538737 -2.372285 -1.647116 0.116085 8.040779 0.038986 -0.353188 2.379168 -0.184730 0.914846 -4.508848 0.699583 -0.000962 -0.057379 0.005803 0.341648 8.459245 -0.257098 1.316852 1.885299 -0.000981 -2.095025 -4.666690 1.080088 0.008528 0.040988 0.009981
12.723161 89.124244 0.532596 48.157296 -5.850745 -0.514767 -0.964480 2.382231 -0.192877 -0.552142 1.363360 -0.084918 -0.690542 1.704067 -0.108209 -0.552142 1.363360 -0.084918 2.226472 21.285086 -0.305371 2.452326 -3.038319 -0.835242 0.144056 0.250835 -1.548657 -2.403698 11.027774 76.028660 32.065242 12.278613 22.172698 -0.625979 -0.943275 0.343249 4.807384 -0.666252 1.685411 11.702265 9.843576 -66.105545 -40.329000 26.966679 -36.065506 -2.688961 -2.326240 -1.750498 0.115326 8.044922 0.037528 -0.362384 2.397906 -0.194503 0.907008 -4.521616 0.717935 -0.001122 -0.059376 0.005286 0.321269 8.477741 -0.264936 1.327788 1.868501 -0.004930 -2.098410 -4.660958 1.092204 0.007820 0.039493 0.012196
12.747080 89.124208 0.524216 48.179002 -5.854304 -0.523088 -0.975089 2.390495 -0.192649 -0.558524 1.368061 -0.084218 -0.698519 1.709943 -0.107364 -0.558524 1.368061 -0.084218 2.243107 21.316861 -0.343482 2.479322 -3.000348 -0.879926 0.147257 0.218911 -1.626992 -2.571019 11.281365 75.574731 32.906302 12.507047 22.878476 -0.652126 -0.928953 0.457129 4.885485 -0.710660 1.762713 11.945771 9.991502 -65.654655 -41.384195 27.152578 -36.951773 -2.817549 -2.291774 -1.845753 0.111570 8.049551 0.034819 -0.370407 2.416679 -0.205715 0.902551 -4.535172 0.738394 -0.001196 -0.061400 0.005465 0.305743 8.496966 -0.271098 1.331326 1.850323 -0.009831 -2.108416 -4.653994 1.104957 0.007351 0.037783 0.014528
12.772568 89.123958 0.515206 48.200943 -5.857966 -0.533319 -0.983825 2.398590 -0.191982 -0.563906 1.372605 -0.083114 -0.705245 1.715623 -0.106011 -0.563906 1.372605 -0.083114 2.259256 21.348723 -0.381944 2.505889 -2.962238 -0.924894 0.140287 0.188589 -1.711864 -2.714254 11.539466 75.129270 33.738201 12.687854 23.571253 -0.669708 -0.921417 0.571924 4.965576 -0.754584 1.843797 12.187634 10.140052 -65.214816 -42.423143 27.293727 -37.829512 -2.919716 -2.264426 -1.934349 0.106529 8.055149 0.033263 -0.380760 2.434821 -0.218732 0.903124 -4.548885 0.760929 -0.001548 -0.063442 0.005598 0.291550 8.515137 -0.276635 1.334248 1.835573 -0.013975 -2.119664 -4.649396 1.118246 0.007398 0.036771 0.016682
12.798904 89.123376 0.505715 48.222889 -5.860708 -0.545555 -0.990966 2.405641 -0.190678 -0.568115 1.376504 -0.081670 -0.710501 1.720498 -0.104229 -0.568115 1.376504 -0.081670 2.276684 21.381447 -0.419097 2.533550 -2.923054 -0.968772 0.122105 0.161605 -1.803416 -2.831598 11.802813 74.697744 34.556269 12.823729 24.250082 -0.669899 -0.919792 0.677578 5.041746 -0.795819 1.927399 12.426860 10.283383 -64.780910 -43.443732 27.393727 -38.698366 -3.004891 -2.233980 -2.014290 0.099842 8.060574 0.032380 -0.395823 2.452116 -0.231191 0.910130 -4.562871 0.784247 -0.001572 -0.065108 0.005285 0.275556 8.530430 -0.281716 1.342127 1.825401 -0.017774 -2.132408 -4.648615 1.132490 0.007753 0.037194 0.018497
12.825956 89.122384 0.495640 48.243320 -5.862534 -0.557186 -0.998914 2.411970 -0.189865 -0.572248 1.379989 -0.080671 -0.715665 1.724855 -0.103001 -0.572248 1.379989 -0.080671 2.297814 21.414938 -0.454025 2.564703 -2.882842 -1.011136 0.104486 0.137617 -1.901169 -2.929511 12.071737 74.280579 35.358582 12.919694 24.914462 -0.642886 -0.919835 0.769033 5.124635 -0.836487 2.009556 12.660557 10.421651 -64.345251 -44.462851 27.469061 -39.566509 -3.081741 -2.191855 -2.079176 0.086779 8.064717 0.029652 -0.404003 2.470549 -0.243548 0.914972 -4.578645 0.809539 -0.001165 -0.065723 0.003794 0.261432 8.544908 -0.287152 1.347895 1.815571 -0.022865 -2.144950 -4.649315 1.148243 0.007803 0.038593 0.019804
12.853620 89.120965 0.485104 48.260266 -5.864025 -0.567280 -1.007138 2.418463 -0.189741 -0.576359 1.383467 -0.080385 -0.720804 1.729202 -0.102664 -0.576359 1.383467 -0.080385 2.322899 21.448491 -0.486722 2.599614 -2.842413 -1.052036 0.088589 0.113527 -2.006137 -3.008793 12.344659 73.875023 36.144668 12.987197 25.567053 -0.580576 -0.926501 0.844080 5.214593 -0.876238 2.090934 12.888954 10.555962 -63.908077 -45.497458 27.534127 -40.433662 -3.157889 -2.137919 -2.131443 0.067450 8.068584 0.024711 -0.398481 2.488821 -0.256503 0.912500 -4.595401 0.836310 -0.000503 -0.065171 0.002043 0.252779 8.558930 -0.294147 1.346788 1.806906 -0.027664 -2.153754 -4.651863 1.164859 0.007594 0.040490 0.020434
12.881599 89.119148 0.474310 48.276517 -5.864956 -0.577035 -1.013348 2.424670 -0.189544 -0.579637 1.386749 -0.080189 -0.724903 1.733304 -0.102437 -0.579637 1.386749 -0.080189 2.347770 21.482291 -0.518516 2.634105 -2.801667 -1.091938 0.067091 0.089975 -2.120099 -3.073402 12.616661 73.477662 36.917674 13.041910 26.214535 -0.484619 -0.940600 0.901055 5.304199 -0.916575 2.172107 13.106790 10.687298 -63.468348 -46.557205 27.597669 -41.296477 -3.239268 -2.086154 -2.182085 0.047396 8.072479 0.019160 -0.389672 2.506031 -0.269492 0.907575 -4.612160 0.862481 0.000102 -0.064027 0.001428 0.244255 8.571952 -0.303405 1.341412 1.799433 -0.029750 -2.156734 -4.655950 1.180844 0.007389 0.042884 0.020636
12.909809 89.117037 0.463475 48.294284 -5.866068 -0.587095 -1.018077 2.431263 -0.189751 -0.582210 1.390293 -0.079838 -0.728119 1.737734 -0.102013 -0.582210 1.390293 -0.079838 2.371183 21.515630 -0.549383 2.666820 -2.761473 -1.130523 0.040485 0.065482 -2.240860 -3.136866 12.886273 73.081600 37.683623 13.101117 26.864126 -0.358150 -0.955534 0.939293 5.394218 -0.960850 2.253569 13.316960 10.814217 -63.026978 -47.645981 27.666271 -42.158078 -3.326966 -2.041496 -2.236468 0.028889 8.076947 0.014352 -0.383934 2.523098 -0.283053 0.902272 -4.629293 0.888602 0.000132 -0.062621 0.001331 0.231721 8.585037 -0.313914 1.333790 1.792112 -0.029976 -2.155350 -4.660546 1.196848 0.006968 0.045709 0.019994
12.938454 89.114804 0.452919 48.309291 -5.869946 -0.596890 -1.019563 2.439660 -0.191013 -0.582791 1.394910 -0.079871 -0.728846 1.743505 -0.102064 -0.582791 1.394910 -0.079871 2.392604 21.547742 -0.577415 2.696733 -2.722782 -1.165620 0.004201 0.037985 -2.363375 -3.203519 13.156458 72.680960 38.451458 13.176055 27.514169 -0.211574 -0.969045 0.967569 5.482612 -1.009120 2.340525 13.518233 10.935695 -62.592906 -48.747701 27.733741 -43.009676 -3.420311 -1.995611 -2.295886 0.013284 8.085668 0.008696 -0.379337 2.537575 -0.295979 0.900099 -4.646218 0.914378 -0.000119 -0.060542 0.001555 0.218038 8.600537 -0.325240 1.327279 1.786622 -0.029868 -2.150830 -4.666839 1.213873 0.006733 0.048659 0.018543
12.967603 89.112618 0.442804 48.318336 -5.878048 -0.605868 -1.016536 2.450424 -0.192943 -0.580810 1.400864 -0.080753 -0.726375 1.750947 -0.103169 -0.580810 1.400864 -0.080753 2.411877 21.578511 -0.602311 2.723604 -2.685750 -1.196866 -0.039389 0.010921 -2.484900 -3.272517 13.425100 72.274488 39.230722 13.270428 28.157159 -0.064500 -0.980012 0.998302 5.566186 -1.062079 2.436470 13.709354 11.055320 -62.171510 -49.846307 27.794225 -43.841123 -3.515631 -1.946845 -2.367378 0.001217 8.100234 -0.000192 -0.374039 2.548659 -0.305035 0.903765 -4.662211 0.936996 0.000285 -0.058115 0.003049 0.207550 8.620430 -0.337356 1.321976 1.782741 -0.030435 -2.141357 -4.674862 1.231257 0.007229 0.051330 0.017620
12.997019 89.110593 0.432987 48.325344 -5.889259 -0.614238 -1.012496 2.463692 -0.195308 -0.578325 1.408253 -0.082166 -0.723277 1.760181 -0.104936 -0.578325 1.408253 -0.082166 2.431549 21.607237 -0.625640 2.750530 -2.651082 -1.226528 -0.081087 -0.018872 -2.605730 -3.344206 13.693523 71.864866 40.029659 13.392377 28.789988 0.068455 -0.983565 1.035129 5.646280 -1.122071 2.538232 13.904277 11.178447 -61.759484 -50.947401 27.850125 -44.660033 -3.615441 -1.903026 -2.454973 -0.012709 8.118620 -0.010708 -0.366314 2.558436 -0.311818 0.906953 -4.677414 0.957154 0.001167 -0.056168 0.005100 0.198441 8.643869 -0.349427 1.318358 1.778854 -0.032506 -2.130865 -4.682957 1.249069 0.007855 0.053541 0.017262
13.026328 89.108817 0.423441 48.334501 -5.902346 -0.623433 -1.009375 2.478344 -0.198328 -0.576298 1.416582 -0.083562 -0.720751 1.770591 -0.106687 -0.576298 1.416582 -0.083562 2.451716 21.635272 -0.648156 2.777804 -2.617185 -1.255438 -0.120640 -0.054839 -2.727389 -3.415995 13.965852 71.458372 40.848515 13.545277 29.407873 0.180175 -0.974392 1.085168 5.725071 -1.187554 2.643700 14.099711 11.306815 -61.356149 -52.031352 27.889922 -45.457270 -3.743957 -1.897382 -2.559101 -0.031413 8.138344 -0.019117 -0.356458 2.569786 -0.319659 0.904526 -4.692888 0.976677 0.001684 -0.055137 0.007000 0.186913 8.669280 -0.360362 1.316886 1.774544 -0.034539 -2.123356 -4.691037 1.266083 0.007906 0.055853 0.017231
